<svg width="123" height="42" viewBox="0 0 123 42" fill="none" xmlns="http://www.w3.org/2000/svg">
<path d="M4.66338 18.0357C3.83145 18.0244 3.11456 17.7907 2.5127 17.3345C1.94284 16.8787 1.50379 16.2167 1.19555 15.3484C0.919304 14.4806 0.805219 13.4549 0.853293 12.2715C0.904842 10.832 1.30792 9.42939 2.06254 8.06351C2.81716 6.69763 3.95248 5.57694 5.4685 4.70144C7.01653 3.82638 8.94243 3.40449 11.2462 3.43578C12.8461 3.4575 14.3962 3.60656 15.8966 3.88296C17.397 4.15936 18.8811 4.45154 20.3491 4.7595C21.8175 5.03546 23.2716 5.18322 24.7115 5.20277C25.8954 5.21885 26.9364 5.15297 27.8344 5.00516C28.7645 4.85777 29.6348 4.40554 30.4451 3.64848C30.602 3.87463 30.7261 4.16434 30.8173 4.51761C30.9405 4.87132 30.9998 5.22415 30.995 5.57612C30.9867 6.18406 30.8187 6.77384 30.4909 7.34544C30.1951 7.91748 29.7246 8.39113 29.0795 8.76641C28.4343 9.14168 27.5838 9.32215 26.5279 9.30781C25.76 9.29738 24.8978 9.15766 23.9414 8.88865C22.9849 8.61964 21.9336 8.26933 20.7873 7.83773C19.6731 7.40656 18.4633 6.94209 17.1579 6.44432L17.1119 6.29968C16.1887 5.93512 15.3916 5.71627 14.7206 5.64315C14.0815 5.57047 13.298 5.52783 12.3701 5.51523C10.3223 5.48742 8.69796 6.08942 7.49712 7.32123C6.32828 8.55347 5.69644 10.3051 5.6016 12.576C5.557 13.5035 5.62483 14.4005 5.80508 15.267C6.01733 16.134 6.32643 16.9382 6.7324 17.6798C6.41069 17.8034 6.05742 17.8947 5.67259 17.9534C5.28775 18.0122 4.95135 18.0397 4.66338 18.0357ZM8.02037 39.4913C7.54041 39.4848 7.07754 39.3985 6.63175 39.2324C6.21796 39.0668 5.93325 38.8229 5.77761 38.5008C6.19705 38.2504 6.55336 37.9352 6.84655 37.5552C7.17173 37.1756 7.45001 36.7153 7.68137 36.1744C7.94517 35.6019 8.16249 34.9168 8.33334 34.1191L13.2841 12.4403C13.5549 11.3559 13.921 10.3207 14.3824 9.3349C14.8438 8.34908 15.4626 7.55741 16.2388 6.95989C17.0474 6.33081 18.0595 6.04053 19.2749 6.08903L12.3467 35.5177C12.1093 36.5065 11.7947 37.2863 11.4029 37.8571C11.0106 38.4598 10.5248 38.8853 9.9454 39.1334C9.39798 39.382 8.7563 39.5013 8.02037 39.4913ZM20.9187 22.9129C20.2467 22.9038 19.5592 22.8624 18.8561 22.7889C18.1855 22.6838 17.4831 22.5622 16.7489 22.4242C16.0471 22.2547 15.2978 22.0525 14.5009 21.8177L15.2567 19.1877C15.8642 19.2279 16.4237 19.2675 16.9353 19.3065C17.4788 19.3459 18.0063 19.385 18.5178 19.424C19.0298 19.4309 19.5417 19.4379 20.0537 19.4448C20.8216 19.4553 21.5897 19.4497 22.3581 19.4281C23.1585 19.407 23.975 19.3701 24.8078 19.3174C24.8692 19.5102 24.9148 19.6869 24.9447 19.8473C24.9745 20.0077 24.9883 20.1679 24.9861 20.3279C24.942 21.2234 24.5329 21.8899 23.7589 22.3274C22.9853 22.7329 22.0386 22.9281 20.9187 22.9129ZM26.8683 37.8751L31.9588 12.9819L35.7089 12.5528L35.1236 16.7692C35.7174 15.4652 36.6283 14.3734 37.8564 13.494C39.0848 12.5826 40.419 12.1367 41.8589 12.1562C43.3628 12.1767 44.4284 12.6552 45.0557 13.5918C45.683 14.5284 45.9884 15.6046 45.9719 16.8205C45.952 18.2924 45.5344 19.5828 44.7193 20.6919C43.9361 21.8013 42.9046 22.3474 41.6247 22.33C41.3048 22.3257 40.9537 22.2569 40.5714 22.1237C40.2212 21.9909 39.9523 21.7632 39.7646 21.4407C40.1231 20.9655 40.4189 20.3934 40.652 19.7245C40.9176 19.0241 41.0542 18.3859 41.0621 17.8099C41.0707 17.17 40.9173 16.6879 40.6016 16.3636C40.3185 16.0077 39.8729 15.8256 39.2649 15.8174C38.401 15.8056 37.6607 16.1156 37.0441 16.7473C36.4279 17.347 35.9215 18.1082 35.525 19.0309C35.1284 19.9536 34.7954 20.9091 34.5259 21.8976C34.2889 22.8544 34.1019 23.668 33.9648 24.3382L31.4344 37.457L26.8683 37.8751ZM54.3362 38.7281C52.5444 38.7038 51.0131 38.3469 49.7424 37.6576C48.504 36.9368 47.5582 35.8838 46.905 34.4988C46.2837 33.1143 45.9874 31.3661 46.0161 29.2543C46.0435 27.2384 46.3428 25.2263 46.9142 23.2179C47.4855 21.2095 48.3262 19.3967 49.4362 17.7796C50.5467 16.1306 51.9406 14.8214 53.6179 13.8521C55.3277 12.8512 57.3185 12.3662 59.5903 12.397C60.8061 12.4135 61.8757 12.6041 62.7988 12.9686C63.7219 13.3332 64.434 13.9189 64.9351 14.7258C65.4687 15.5011 65.7265 16.5447 65.7087 17.8566C65.6826 19.7764 65.0847 21.3844 63.915 22.6807C62.7453 23.9769 61.2282 24.9324 59.3637 25.5472C57.5312 26.1623 55.5752 26.4398 53.4958 26.3796C53.0799 26.3739 52.6161 26.3516 52.1046 26.3127C51.5931 26.2737 51.1936 26.2363 50.906 26.2004C50.8662 26.7759 50.8266 27.3354 50.7872 27.8789C50.7483 28.3904 50.726 28.8542 50.7203 29.2701C50.6951 31.126 50.9953 32.5862 51.6209 33.6508C52.247 34.6834 53.4399 35.2116 55.1998 35.2355C56.6396 35.2551 57.8763 34.9198 58.9097 34.2298C59.9752 33.5402 60.8204 32.5756 61.4453 31.3359C61.8924 31.406 62.1931 31.6501 62.3474 32.0683C62.5022 32.4544 62.577 32.8395 62.5718 33.2234C62.5605 34.0553 62.245 34.8991 61.6253 35.7548C61.0376 36.6109 60.1319 37.3187 58.9082 37.8781C57.7161 38.47 56.1921 38.7533 54.3362 38.7281ZM51.2746 23.8052C52.3625 23.8199 53.4677 23.7389 54.5902 23.5622C55.7131 23.3534 56.7576 23.0315 57.7236 22.5966C58.6896 22.1617 59.4658 21.5642 60.0521 20.8041C60.6705 20.0444 60.9871 19.1206 61.0019 18.0327C61.0149 17.0728 60.7845 16.3656 60.3106 15.9111C59.8692 15.4251 59.2325 15.1764 58.4006 15.1651C57.4087 15.1516 56.4926 15.4432 55.6524 16.0399C54.8442 16.637 54.1459 17.3956 53.5573 18.3156C52.9688 19.2357 52.4758 20.1891 52.0784 21.1758C51.7129 22.163 51.445 23.0394 51.2746 23.8052ZM73.8386 38.9929C72.2707 38.9716 70.9961 38.5703 70.0146 37.7889C69.0655 36.9759 68.3761 35.8945 67.9464 34.5445C67.5167 33.1946 67.3136 31.6557 67.3371 29.9278C67.3692 27.56 67.7194 25.3406 68.3876 23.2695C69.0562 21.1664 69.9613 19.3225 71.1029 17.7378C72.277 16.1216 73.654 14.8762 75.234 14.0016C76.8465 13.0954 78.5806 12.6549 80.4365 12.6801C81.4604 12.694 82.3548 12.8181 83.1197 13.0526C83.917 13.2554 84.825 13.5558 85.8437 13.9536L89.2941 14.3845C88.6423 17.608 87.9745 20.8312 87.2907 24.0542C86.6388 27.2777 85.971 30.5009 85.2872 33.7239C85.2513 34.0114 85.1987 34.3467 85.1295 34.7298C85.0603 35.1129 85.0237 35.4485 85.0198 35.7364C85.0137 36.1844 85.105 36.5377 85.2935 36.7963C85.5144 37.0233 85.8326 37.1556 86.2482 37.1933C86.1141 37.6395 85.9011 38.0046 85.6092 38.2887C85.3173 38.5727 84.9785 38.7762 84.5928 38.8989C84.2067 39.0537 83.7737 39.1278 83.2937 39.1213C82.4618 39.11 81.7771 38.8607 81.2397 38.3734C80.7338 37.9185 80.471 37.2428 80.4511 36.3465C79.6083 37.1351 78.6235 37.7778 77.4967 38.2745C76.3698 38.7713 75.1505 39.0107 73.8386 38.9929ZM75.7969 36.1873C77.0767 36.2046 78.1223 35.8028 78.9335 34.9817C79.7772 34.1291 80.4474 33.0821 80.9443 31.8408C81.4417 30.5674 81.8104 29.3403 82.0504 28.1594L84.2628 17.2445C83.5983 16.6914 82.8838 16.2817 82.1193 16.0152C81.3553 15.7168 80.6533 15.5633 80.0134 15.5546C79.0215 15.5411 78.1061 15.7847 77.2672 16.2854C76.4603 16.7865 75.7306 17.4966 75.0781 18.4159C74.4575 19.3355 73.9146 20.4323 73.4493 21.7061C73.0164 22.9483 72.6777 24.3198 72.4333 25.8206C72.2213 27.2899 72.1045 28.8244 72.0828 30.4243C72.061 32.0242 72.2985 33.3875 72.7953 34.5144C73.3245 35.6096 74.325 36.1673 75.7969 36.1873ZM89.1916 14.8632L84.8766 14.4685C85.2209 12.6811 85.5338 10.8451 85.8155 8.96078C86.0971 7.07643 86.2466 5.49431 86.2639 4.21443C86.2687 3.86247 86.2569 3.55827 86.2283 3.30186C86.2322 3.01389 86.2037 2.75748 86.1428 2.53263C86.3369 2.37525 86.5946 2.25074 86.9159 2.15909C87.2692 2.06788 87.6378 2.02489 88.0218 2.0301C88.7577 2.04009 89.4584 2.28963 90.1238 2.77871C90.7896 3.23579 91.1143 4.07228 91.0978 5.28817C91.0939 5.57614 90.9886 6.26277 90.7818 7.34806C90.5755 8.40136 90.319 9.61399 90.0123 10.986C89.7377 12.3583 89.4641 13.6508 89.1916 14.8632ZM98.9613 39.3341C97.3934 39.3128 96.1187 38.9114 95.1373 38.13C94.1882 37.3171 93.4988 36.2356 93.0691 34.8857C92.6394 33.5357 92.4363 31.9968 92.4597 30.269C92.4919 27.9012 92.8261 25.6815 93.4623 23.61C94.1309 21.5068 95.052 19.6632 96.2256 18.079C97.3997 16.4628 98.7767 15.2173 100.357 14.3427C101.937 13.4361 103.655 12.9954 105.511 13.0206C107.047 13.0414 108.69 13.3998 110.441 14.0956L114.624 13.6244L110.41 34.065C110.374 34.3526 110.321 34.6879 110.252 35.071C110.183 35.4541 110.146 35.7896 110.143 36.0776C110.136 36.5256 110.228 36.8788 110.416 37.1374C110.637 37.3644 110.955 37.4968 111.371 37.5344C111.237 37.9806 111.024 38.3458 110.732 38.6298C110.44 38.9139 110.101 39.1173 109.716 39.2401C109.329 39.3949 108.896 39.469 108.416 39.4625C107.584 39.4512 106.9 39.2019 106.362 38.7145C105.856 38.2596 105.594 37.584 105.574 36.6876C104.731 37.4762 103.746 38.1189 102.619 38.6157C101.493 39.1124 100.273 39.3519 98.9613 39.3341ZM100.92 36.5284C102.199 36.5458 103.245 36.1439 104.056 35.3229C104.9 34.4703 105.57 33.4233 106.067 32.1819C106.564 30.9085 106.933 29.6814 107.173 28.5006L109.386 17.5856C108.721 17.0325 108.006 16.6228 107.242 16.3564C106.478 16.058 105.776 15.9044 105.136 15.8958C104.144 15.8823 103.229 16.1259 102.39 16.6265C101.583 17.1276 100.853 17.8378 100.201 18.757C99.5802 19.6767 99.0373 20.7734 98.5719 22.0472C98.139 23.2894 97.8004 24.661 97.556 26.1618C97.344 27.631 97.2272 29.1656 97.2054 30.7654C97.1837 32.3653 97.4212 33.7286 97.918 34.8555C98.4472 35.9508 99.4477 36.5084 100.92 36.5284ZM118.484 39.6952C117.556 39.6826 116.791 39.4322 116.19 38.944C115.588 38.4878 115.294 37.7797 115.307 36.8198C115.32 35.8279 115.65 35.1123 116.296 34.673C116.974 34.2022 117.778 33.9731 118.706 33.9857C119.633 33.9983 120.398 34.2487 121 34.7369C121.601 35.1931 121.896 35.8852 121.883 36.8131C121.87 37.805 121.524 38.5364 120.846 39.0072C120.199 39.4785 119.412 39.7078 118.484 39.6952Z" fill="#FFFCFC"/>
</svg>
